<?xml version="1.0" encoding="UTF-8"?>
<!DOCTYPE svg PUBLIC "-//W3C//DTD SVG 1.1//EN" "http://www.w3.org/Graphics/SVG/1.1/DTD/svg11.dtd">
<svg xmlns="http://www.w3.org/2000/svg" version="1.1" width="233px" height="48px" style="shape-rendering:geometricPrecision; text-rendering:geometricPrecision; image-rendering:optimizeQuality; fill-rule:evenodd; clip-rule:evenodd" xmlns:xlink="http://www.w3.org/1999/xlink">
<g><path style="opacity:0.95" fill="#553079" d="M -0.5,-0.5 C 1.5,-0.5 3.5,-0.5 5.5,-0.5C 2.77582,2.28167 1.10916,5.615 0.5,9.5C 0.166667,9.5 -0.166667,9.5 -0.5,9.5C -0.5,6.16667 -0.5,2.83333 -0.5,-0.5 Z"/></g>
<g><path style="opacity:0.99" fill="#553078" d="M 30.5,-0.5 C 40.8333,-0.5 51.1667,-0.5 61.5,-0.5C 61.5,6.83333 61.5,14.1667 61.5,21.5C 56.24,19.0639 50.5734,16.7306 44.5,14.5C 39.7265,16.0531 35.0598,17.8865 30.5,20C 35.6199,19.6378 40.6199,18.4711 45.5,16.5C 45.8333,16.8333 46.1667,17.1667 46.5,17.5C 44.5434,19.4848 42.2101,20.9848 39.5,22C 41.3126,21.9536 42.9793,22.1203 44.5,22.5C 42.8152,28.0149 39.4818,32.1815 34.5,35C 36.5979,34.9678 38.5979,34.3011 40.5,33C 43.069,30.5206 45.4023,27.854 47.5,25C 48.8333,24.3333 50.1667,24.3333 51.5,25C 49.6833,29.8262 46.6833,33.8262 42.5,37C 46.0178,36.5276 48.8511,34.6942 51,31.5C 52.3183,28.5234 53.8183,25.6901 55.5,23C 57.1667,22.3333 58.8333,22.3333 60.5,23C 58.4603,29.0662 55.127,34.3995 50.5,39C 49.255,39.7914 47.9217,40.2914 46.5,40.5C 42.6002,41.4299 38.6002,41.7633 34.5,41.5C 23.7203,39.7198 17.7203,33.3865 16.5,22.5C 16.3517,11.7801 21.0184,4.11346 30.5,-0.5 Z"/></g>
<g><path style="opacity:0.991" fill="#542f78" d="M 63.5,-0.5 C 119.833,-0.5 176.167,-0.5 232.5,-0.5C 232.5,15.5 232.5,31.5 232.5,47.5C 176.167,47.5 119.833,47.5 63.5,47.5C 63.5,31.5 63.5,15.5 63.5,-0.5 Z"/></g>
<g><path style="opacity:1" fill="#b08040" d="M 209.5,7.5 C 209.183,11.7016 209.517,15.7016 210.5,19.5C 210.5,23.5 210.5,27.5 210.5,31.5C 208.167,32.8333 205.833,32.8333 203.5,31.5C 204.819,24.3231 204.819,16.9898 203.5,9.5C 202.5,9 201.5,8.5 200.5,8C 203.482,7.50204 206.482,7.33537 209.5,7.5 Z"/></g>
<g><path style="opacity:1" fill="#dcb476" d="M 23.5,-0.5 C 25.8333,-0.5 28.1667,-0.5 30.5,-0.5C 21.0184,4.11346 16.3517,11.7801 16.5,22.5C 14.8333,21.5 13.5,20.1667 12.5,18.5C 12.4026,9.94268 16.0693,3.60934 23.5,-0.5 Z"/></g>
<g><path style="opacity:1" fill="#5e3877" d="M 10.5,-0.5 C 11.5,-0.5 12.5,-0.5 13.5,-0.5C 10.1319,2.90367 7.7986,6.90367 6.5,11.5C 5.56937,16.0205 5.4027,20.6872 6,25.5C 4.62114,20.964 4.12114,16.2973 4.5,11.5C 5.44242,6.94847 7.44242,2.94847 10.5,-0.5 Z"/></g>
<g><path style="opacity:1" fill="#684077" d="M 19.5,-0.5 C 20.8333,-0.5 22.1667,-0.5 23.5,-0.5C 16.0693,3.60934 12.4026,9.94268 12.5,18.5C 12.254,21.2933 12.0873,24.2933 12,27.5C 10.7101,23.2695 10.2101,18.9362 10.5,14.5C 11.4805,8.20788 14.4805,3.20788 19.5,-0.5 Z"/></g>
<g><path style="opacity:1" fill="#95643c" d="M 80.5,8.5 C 84.5463,8.14995 88.3797,8.81661 92,10.5C 92.414,10.0426 92.914,9.70931 93.5,9.5C 94.6517,12.1062 94.8184,14.7728 94,17.5C 92.6233,15.2462 91.1233,13.0795 89.5,11C 81.5332,9.06456 77.8665,12.2312 78.5,20.5C 77.2531,28.7382 80.5864,32.5716 88.5,32C 89.6023,29.5991 89.769,27.0991 89,24.5C 88.2496,23.8742 87.4162,23.3742 86.5,23C 90.5,22.3333 94.5,22.3333 98.5,23C 97.5838,23.3742 96.7504,23.8742 96,24.5C 95.8142,26.9005 95.3142,29.2338 94.5,31.5C 87.135,34.7634 80.3017,34.0967 74,29.5C 69.0401,20.1565 71.2067,13.1565 80.5,8.5 Z"/></g>
<g><path style="opacity:1" fill="#d9b176" d="M 13.5,-0.5 C 15.5,-0.5 17.5,-0.5 19.5,-0.5C 14.4805,3.20788 11.4805,8.20788 10.5,14.5C 9.69808,15.9516 9.19808,17.6183 9,19.5C 6.79687,17.3312 5.96354,14.6646 6.5,11.5C 7.7986,6.90367 10.1319,2.90367 13.5,-0.5 Z"/></g>
<g><path style="opacity:1" fill="#cba26b" d="M 5.5,-0.5 C 7.16667,-0.5 8.83333,-0.5 10.5,-0.5C 7.44242,2.94847 5.44242,6.94847 4.5,11.5C 3.6829,13.9686 3.1829,16.6353 3,19.5C 0.713674,16.635 -0.119659,13.3017 0.5,9.5C 1.10916,5.615 2.77582,2.28167 5.5,-0.5 Z"/></g>
<g><path style="opacity:1" fill="#ae8259" d="M 110.5,31.5 C 110.389,32.1174 110.056,32.6174 109.5,33C 107.167,33.6667 104.833,33.6667 102.5,33C 99.8333,30.6667 99.8333,28.3333 102.5,26C 105.206,24.4525 108.04,23.2858 111,22.5C 111.494,20.8659 111.66,19.1992 111.5,17.5C 110.167,17.5 108.833,17.5 107.5,17.5C 108.085,20.2605 107.085,21.9272 104.5,22.5C 100.536,20.8383 100.536,19.005 104.5,17C 108.167,16.3333 111.833,16.3333 115.5,17C 116,17.5 116.5,18 117,18.5C 117.499,22.8206 117.666,27.1539 117.5,31.5C 121.444,32.2745 121.277,32.9411 117,33.5C 114.558,33.5177 112.392,32.851 110.5,31.5 Z"/></g>
<g><path style="opacity:1" fill="#c39a6c" d="M 121.5,17.5 C 127.558,17.7337 133.392,17.7337 139,17.5C 140.167,21.6667 138.667,23.1667 134.5,22C 133.809,20.9326 133.309,19.7659 133,18.5C 132.586,18.9574 132.086,19.2907 131.5,19.5C 130.509,23.4454 130.176,27.4454 130.5,31.5C 131.675,31.281 132.675,31.6143 133.5,32.5C 129.541,33.6599 125.541,33.8265 121.5,33C 123.619,30.8913 124.619,28.2246 124.5,25C 124.167,22.8333 123.833,20.6667 123.5,18.5C 122.817,18.1373 122.15,17.8039 121.5,17.5 Z"/></g>
<g><path style="opacity:1" fill="#dab57f" d="M 144.5,16.5 C 149.875,16.1718 155.208,16.5052 160.5,17.5C 157.985,18.1997 157.318,19.5331 158.5,21.5C 157.96,22.7481 157.293,23.9148 156.5,25C 153.312,26.3158 149.978,26.8158 146.5,26.5C 146.5,27.5 146.5,28.5 146.5,29.5C 149.85,29.335 153.183,29.5017 156.5,30C 161.93,33.6749 161.596,37.0083 155.5,40C 150.442,41.0104 145.609,40.5104 141,38.5C 140.207,34.9535 141.707,33.1202 145.5,33C 141.562,30.9394 141.562,28.7727 145.5,26.5C 140.602,23.5856 140.268,20.2523 144.5,16.5 Z"/></g>
<g><path style="opacity:1" fill="#5a3479" d="M 147.5,17.5 C 150.93,16.7553 152.597,18.0886 152.5,21.5C 152.597,24.9114 150.93,26.2447 147.5,25.5C 147.5,22.8333 147.5,20.1667 147.5,17.5 Z"/></g>
<g><path style="opacity:1" fill="#9e6e3f" d="M 209.5,7.5 C 210.323,10.977 210.823,14.6437 211,18.5C 214.101,16.2799 217.435,15.9465 221,17.5C 221.783,22.6267 222.95,27.6267 224.5,32.5C 221.167,33.8333 217.833,33.8333 214.5,32.5C 216.512,28.4083 217.012,24.075 216,19.5C 214.224,18.4639 212.391,18.4639 210.5,19.5C 209.517,15.7016 209.183,11.7016 209.5,7.5 Z"/></g>
<g><path style="opacity:1" fill="#be915c" d="M 61.5,21.5 C 61.5,22.8333 61.5,24.1667 61.5,25.5C 59.9858,31.5264 56.6525,36.3597 51.5,40C 49.9751,41.0086 48.3084,41.5086 46.5,41.5C 46.5,41.1667 46.5,40.8333 46.5,40.5C 47.9217,40.2914 49.255,39.7914 50.5,39C 55.127,34.3995 58.4603,29.0662 60.5,23C 58.8333,22.3333 57.1667,22.3333 55.5,23C 53.8183,25.6901 52.3183,28.5234 51,31.5C 48.8511,34.6942 46.0178,36.5276 42.5,37C 46.6833,33.8262 49.6833,29.8262 51.5,25C 50.1667,24.3333 48.8333,24.3333 47.5,25C 45.4023,27.854 43.069,30.5206 40.5,33C 38.5979,34.3011 36.5979,34.9678 34.5,35C 39.4818,32.1815 42.8152,28.0149 44.5,22.5C 42.9793,22.1203 41.3126,21.9536 39.5,22C 42.2101,20.9848 44.5434,19.4848 46.5,17.5C 46.1667,17.1667 45.8333,16.8333 45.5,16.5C 40.6199,18.4711 35.6199,19.6378 30.5,20C 35.0598,17.8865 39.7265,16.0531 44.5,14.5C 50.5734,16.7306 56.24,19.0639 61.5,21.5 Z"/></g>
<g><path style="opacity:1" fill="#5b3475" d="M 51.5,19.5 C 53.0281,19.5173 53.5281,20.184 53,21.5C 51.5589,22.2598 50.0589,22.9264 48.5,23.5C 47.6143,22.675 47.281,21.675 47.5,20.5C 49.099,20.7678 50.4324,20.4345 51.5,19.5 Z"/></g>
<g><path style="opacity:0.991" fill="#542e78" d="M -0.5,19.5 C 4.2137,33.8623 14.2137,41.5289 29.5,42.5C 35.2333,43.7979 40.8999,43.4646 46.5,41.5C 48.3084,41.5086 49.9751,41.0086 51.5,40C 56.6525,36.3597 59.9858,31.5264 61.5,25.5C 61.5,32.8333 61.5,40.1667 61.5,47.5C 40.8333,47.5 20.1667,47.5 -0.5,47.5C -0.5,38.1667 -0.5,28.8333 -0.5,19.5 Z"/></g>
<g><path style="opacity:1" fill="#c29452" d="M 197.5,15.5 C 198.622,17.2884 198.789,19.2884 198,21.5C 196.15,18.1592 193.317,16.8258 189.5,17.5C 189.238,18.9778 189.571,20.3112 190.5,21.5C 193.599,22.3615 196.433,23.6949 199,25.5C 200.271,29.1661 199.104,31.6661 195.5,33C 191.664,33.3057 187.997,33.4724 184.5,33.5C 183.167,31.5 183.167,29.5 184.5,27.5C 186.326,31.5182 189.326,33.0182 193.5,32C 194.833,30.6667 194.833,29.3333 193.5,28C 190.624,27.5621 187.957,26.5621 185.5,25C 183.725,21.6063 184.392,18.9396 187.5,17C 191.025,16.8213 194.359,16.3213 197.5,15.5 Z"/></g>
<g><path style="opacity:1" fill="#5b3476" d="M 110.5,31.5 C 106.929,31.5923 105.762,29.9257 107,26.5C 108.085,25.7069 109.252,25.0402 110.5,24.5C 111.714,26.8587 111.714,29.192 110.5,31.5 Z"/></g>
<g><path style="opacity:1" fill="#dbb06d" d="M 168.5,15.5 C 172.192,14.9712 175.358,15.9712 178,18.5C 178.499,22.8206 178.666,27.1539 178.5,31.5C 182.444,32.2745 182.277,32.9411 178,33.5C 175.966,33.6464 174.299,32.9797 173,31.5C 169.595,34.0768 166.262,34.0768 163,31.5C 162.333,29.8333 162.333,28.1667 163,26.5C 166.027,24.8784 169.194,23.5451 172.5,22.5C 174.242,18.5657 172.909,16.899 168.5,17.5C 169.263,21.1378 167.93,22.6378 164.5,22C 163.978,21.4387 163.645,20.772 163.5,20C 164.43,17.5646 166.097,16.0646 168.5,15.5 Z"/></g>
<g><path style="opacity:1" fill="#5e3877" d="M 170.5,24.5 C 171.5,24.5 172.5,24.5 173.5,24.5C 174.029,27.6041 173.029,29.9375 170.5,31.5C 167.962,29.2599 167.962,26.9265 170.5,24.5 Z"/></g>
<g><path style="opacity:1" fill="#ab7e50" d="M -0.5,9.5 C -0.166667,9.5 0.166667,9.5 0.5,9.5C -0.119659,13.3017 0.713674,16.635 3,19.5C 3.1829,16.6353 3.6829,13.9686 4.5,11.5C 4.12114,16.2973 4.62114,20.964 6,25.5C 5.4027,20.6872 5.56937,16.0205 6.5,11.5C 5.96354,14.6646 6.79687,17.3312 9,19.5C 9.19808,17.6183 9.69808,15.9516 10.5,14.5C 10.2101,18.9362 10.7101,23.2695 12,27.5C 12.0873,24.2933 12.254,21.2933 12.5,18.5C 13.5,20.1667 14.8333,21.5 16.5,22.5C 17.7203,33.3865 23.7203,39.7198 34.5,41.5C 33.0813,42.4511 31.4147,42.7845 29.5,42.5C 14.2137,41.5289 4.2137,33.8623 -0.5,19.5C -0.5,16.1667 -0.5,12.8333 -0.5,9.5 Z"/></g>
<g><path style="opacity:1" fill="#936750" d="M 203.5,31.5 C 205.833,32.8333 208.167,32.8333 210.5,31.5C 211.376,31.3691 212.043,31.7025 212.5,32.5C 208.833,33.8333 205.167,33.8333 201.5,32.5C 201.957,31.7025 202.624,31.3691 203.5,31.5 Z"/></g>
<g><path style="opacity:1" fill="#5b3579" d="M 146.5,33.5 C 149.187,33.3359 151.854,33.5026 154.5,34C 155.86,35.9376 155.527,37.6043 153.5,39C 147.784,40.7591 145.45,38.9258 146.5,33.5 Z"/></g>
<g><path style="opacity:1" fill="#966f74" d="M 46.5,40.5 C 46.5,40.8333 46.5,41.1667 46.5,41.5C 40.8999,43.4646 35.2333,43.7979 29.5,42.5C 31.4147,42.7845 33.0813,42.4511 34.5,41.5C 38.6002,41.7633 42.6002,41.4299 46.5,40.5 Z"/></g>
</svg>
